<svg width="41.000000" height="41.000000" viewBox="0 0 41 41" fill="none" xmlns="http://www.w3.org/2000/svg" xmlns:xlink="http://www.w3.org/1999/xlink">
	<desc>
			Created with Pixso.
	</desc>
	<defs/>
	<path id="Icon" d="M40.83 20C40.83 31.5 31.5 40.83 19.99 40.83C8.49 40.83 -0.84 31.5 -0.84 20C-0.84 8.49 8.49 -0.84 19.99 -0.84C31.5 -0.84 40.83 8.49 40.83 20ZM32.49 27.44C32.49 30.89 26.9 34.58 19.99 34.58C13.09 34.58 7.49 30.89 7.49 27.44C7.49 23.98 13.09 22.08 19.99 22.08C26.9 22.08 32.49 23.98 32.49 27.44ZM19.99 17.91C23.45 17.91 26.24 15.11 26.24 11.66C26.24 8.21 23.45 5.41 19.99 5.41C16.54 5.41 13.74 8.21 13.74 11.66C13.74 15.11 16.54 17.91 19.99 17.91Z" fill="#D9D9D9" fill-opacity="1.000000" fill-rule="evenodd"/>
</svg>
