<svg width="197.000000" height="197.000000" viewBox="0 0 197 197" fill="none" xmlns="http://www.w3.org/2000/svg" xmlns:xlink="http://www.w3.org/1999/xlink">
	<desc>
			Created with Pixso.
	</desc>
	<defs/>
	<mask id="mask33_2013" mask-type="alpha" maskUnits="userSpaceOnUse" x="0.000000" y="0.000000" width="197.000000" height="197.000000">
		<path id="Rectangle 111003296" d="M20 0L177 0C188.04 0 197 8.95 197 20L197 177C197 188.04 188.04 197 177 197L20 197C8.95 197 0 188.04 0 177L0 20C0 8.95 8.95 0 20 0Z" fill="#D9D9D9" fill-opacity="1.000000" fill-rule="nonzero"/>
	</mask>
	<g mask="url(#mask33_2013)">
		<path id="Rectangle 2509" d="M20 0L177 0C188.04 0 197 8.95 197 20L197 177C197 188.04 188.04 197 177 197L20 197C8.95 197 0 188.04 0 177L0 20C0 8.95 8.95 0 20 0Z" fill="#D9D9D9" fill-opacity="1.000000" fill-rule="nonzero"/>
	</g>
	<g mask="url(#mask33_2013)">
		<path id="Ellipse 3844" d="M-7.18 197.49C9.22 155.13 50.35 125.09 98.5 125.09C146.64 125.09 187.77 155.13 204.17 197.49L-7.18 197.49Z" fill="#FFFFFF" fill-opacity="1.000000" fill-rule="evenodd"/>
	</g>
	<g mask="url(#mask33_2013)">
		<path id="Icon" d="M98 100.75C118 100.75 134.2 84.59 134.2 64.65C134.2 44.72 118 28.56 98 28.56C78.01 28.56 61.8 44.72 61.8 64.65C61.8 84.59 78.01 100.75 98 100.75Z" fill="#FFFFFF" fill-opacity="1.000000" fill-rule="evenodd"/>
	</g>
</svg>
