<svg width="15.000000" height="15.000000" viewBox="0 0 15 15" fill="none" xmlns="http://www.w3.org/2000/svg" xmlns:xlink="http://www.w3.org/1999/xlink">
	<desc>
			Created with Pixso.
	</desc>
	<defs/>
	<path id="Icon" d="M4 -0.88C4.82 -0.88 5.5 -0.21 5.5 0.62L8.5 0.62C8.5 -0.21 9.17 -0.88 10 -0.88C10.82 -0.88 11.5 -0.21 11.5 0.62C13.15 0.62 14.5 1.96 14.5 3.62L-0.5 3.62C-0.5 1.96 0.84 0.62 2.5 0.62C2.5 -0.21 3.17 -0.88 4 -0.88ZM14.5 5.12L-0.5 5.12L-0.5 9.32C-0.5 11 -0.5 11.84 -0.18 12.48C0.11 13.05 0.57 13.51 1.13 13.79C1.77 14.12 2.61 14.12 4.3 14.12L9.7 14.12C11.38 14.12 12.22 14.12 12.86 13.79C13.42 13.51 13.88 13.05 14.17 12.48C14.5 11.84 14.5 11 14.5 9.32L14.5 5.12ZM8.58 8.53C8.5 8.69 8.5 8.9 8.5 9.32L8.5 9.92C8.5 10.34 8.5 10.55 8.58 10.71C8.65 10.85 8.76 10.97 8.9 11.04C9.06 11.12 9.27 11.12 9.7 11.12L10.3 11.12C10.72 11.12 10.93 11.12 11.09 11.04C11.23 10.97 11.34 10.85 11.41 10.71C11.5 10.55 11.5 10.34 11.5 9.92L11.5 9.32C11.5 8.9 11.5 8.69 11.41 8.53C11.34 8.39 11.23 8.27 11.09 8.2C10.93 8.12 10.72 8.12 10.3 8.12L9.7 8.12C9.27 8.12 9.06 8.12 8.9 8.2C8.76 8.27 8.65 8.39 8.58 8.53Z" fill="#202020" fill-opacity="1.000000" fill-rule="evenodd"/>
</svg>
